P3
# example.ppm
4 4
255
0  0  0    0  0  0    0  0  0   255  0 255
0  0  0    0 255  70    0  0  0    0  0  0
0  0  0    0  0  0    0 255  70    0  0  0
255  0 255    0  0  0    0  0  0    0  0  0